<svg xmlns="http://www.w3.org/2000/svg" xmlns:xlink="http://www.w3.org/1999/xlink" viewBox="0 0 540 90" width="100%" height="100%" shape-rendering="geometricPrecision">
    <defs>
        <!-- animation -->
        <linearGradient id="pf-svg-sso-animation-gradient" x1="0%" y1="0%" x2="100%" y2="0">
            <stop offset="0%" style="stop-color:#6c6c6c; stop-opacity: 0" />
            <stop offset="55%" style="stop-color:#6c6c6c; stop-opacity: 0" />
            <stop offset="60%" style="stop-color:#44aa82; stop-opacity: 1" />
            <stop offset="75%" style="stop-color:#66c84f; stop-opacity: 1" />
            <stop offset="80%" style="stop-color:#6c6c6c; stop-opacity: 0" />
            <stop offset="100%" style="stop-color:#6c6c6c; stop-opacity: 0" />
        </linearGradient>

        <pattern id="pf-svg-sso-animation-pattern" x="0" y="0" width="300%" height="100%" patternUnits="userSpaceOnUse">
            <rect x="0" y="0" width="150%" height="100%" fill="url(#pf-svg-sso-animation-gradient)">
                <animate attributeType="XML" attributeName="x" from="0" to="150%" dur="2s" repeatCount="indefinite" />
            </rect>
            <rect x="-150%" y="0" width="150%" height="100%" fill="url(#pf-svg-sso-animation-gradient)">
                <animate attributeType="XML" attributeName="x" from="-150%" to="0" dur="2s" repeatCount="indefinite" />
            </rect>
        </pattern>
        <!-- background/frame -->
        <linearGradient id="pf-svg-sso-bg-gradient">
            <stop offset="0" stop-color="#343434" />
            <stop offset=".071" stop-color="#3e3e3e" />
            <stop offset="1" stop-color="#212121" />
        </linearGradient>
        <linearGradient id="pf-svg-sso-bg-darken">
            <stop offset="0" style="stop-color: #343434; stop-opacity: 0;" />
            <stop offset=".071" style="stop-color: #3e3e3e; stop-opacity: .071;" />
            <stop offset="1" style="stop-color: #212121; stop-opacity: 1;" />
        </linearGradient>
        <linearGradient id="pf-svg-sso-bg-frame">
            <stop offset="0" style="stop-color: #6c6c6c; stop-opacity: 1" />
            <stop offset="1" style="stop-color: #232323; stop-opacity: 1" />
        </linearGradient>
        <linearGradient xlink:href="#pf-svg-sso-bg-frame" id="l" x1="-2.652" y1="-.686" x2="-2.298" y2="90.354" gradientUnits="userSpaceOnUse" />
        <linearGradient xlink:href="#pf-svg-sso-bg-gradient" id="k" x1="-4.95" y1="-1.747" x2="-3.712" y2="90.884" gradientUnits="userSpaceOnUse" />
        <linearGradient xlink:href="#pf-svg-sso-bg-darken" id="m" x1="-4.95" y1="-1.747" x2="-3.712" y2="90.884" gradientUnits="userSpaceOnUse" />
    </defs>

    <symbol id="pf-svg-sso" viewBox="0 0 540 90">
        <g>
            <path d="M8 0h524c4.432 0 8 3.568 8 8v74c0 4.432-3.568 8-8 8H8c-4.432 0-8-3.568-8-8V8c0-4.432 3.568-8 8-8z" fill="url(#k)" />
        </g>
        <g>
            <path d="M2.191 2.5A7.965 7.965 0 00.584 5h173.352v85h2.5V5h362.98a7.966 7.966 0 00-1.607-2.5z" fill="url(#l)" />
            <path d="M2.191 2.5A7.965 7.965 0 00.584 5h173.352v85h2.5V5h362.98a7.966 7.966 0 00-1.607-2.5z" fill="url(#pf-svg-sso-animation-pattern)" />
        </g>
        <g>
            <path d="M8 0h524c4.432 0 8 3.568 8 8v74c0 4.432-3.568 8-8 8H8c-4.432 0-8-3.568-8-8V8c0-4.432 3.568-8 8-8z" fill="url(#m)" />
        </g>
        <g fill="currentColor">
            <path d="M21.707 26.07v10.302h7.412v-2.65h33.59V26.07z" />
            <path d="M66.19 26.07l22.55 43.116 22.552-43.116h-8.04S89.607 51.981 88.742 53.651l-14.505-27.58z" />
            <path d="M114.806 26.07v10.302h7.364v-2.65h33.577V26.07z" />
            <path d="M21.707 40.262v7.682H62.71v-7.682z" />
            <path d="M114.806 40.262v7.682h40.941v-7.682z" />
            <path d="M21.707 51.796v10.339H62.71V54.46H29.119v-2.664z" />
            <path d="M114.806 51.796v10.339h40.941V54.46H122.17v-2.664z" />
        </g>
        <g fill="currentColor">
            <path d="M194.44 62.09v-27.3h5.67v23.309h10.509v3.99z" />
            <path d="M212.823 46.247q.059-1.738.177-3.299.139-1.58.475-2.923.355-1.363.987-2.45.652-1.086 1.719-1.857 1.086-.77 2.686-1.185 1.6-.415 3.872-.415 2.252 0 3.852.415t2.667 1.185q1.086.77 1.718 1.857.652 1.087.988 2.45.355 1.343.474 2.923.138 1.56.197 3.299v3.891q0 1.818-.098 3.477-.08 1.64-.415 3.042-.316 1.383-.948 2.509-.633 1.126-1.739 1.935-1.086.79-2.726 1.205-1.64.435-3.97.435-2.331 0-3.97-.435-1.64-.414-2.746-1.205-1.087-.81-1.739-1.935-.632-1.126-.968-2.51-.316-1.402-.414-3.041-.08-1.66-.08-3.477zm5.827 6.46q0 .552.02 1.224.04.652.158 1.323.138.652.395 1.265.276.612.73 1.086.455.454 1.127.75.691.277 1.659.277 1.007 0 1.699-.276.691-.297 1.145-.79.455-.494.712-1.126.256-.652.375-1.363.118-.712.138-1.442.02-.731.02-1.383v-6.973q0-.553-.02-1.284 0-.73-.118-1.501-.1-.79-.336-1.541-.237-.77-.692-1.363-.454-.612-1.165-.968-.711-.375-1.758-.375-1.126 0-1.857.375-.73.356-1.185.948-.454.573-.672 1.324-.217.75-.316 1.52-.079.751-.079 1.462.02.712.02 1.245z" />
            <path d="M235.511 46.247q.06-1.738.178-3.299.138-1.58.474-2.923.356-1.363.988-2.45.652-1.086 1.718-1.857 1.087-.77 2.667-1.185 1.6-.415 3.872-.415 1.817.02 3.338.277 1.54.257 2.746.928 1.224.652 2.074 1.798.869 1.126 1.363 2.904.217.83.217 1.659.02.83.06 1.66h-5.67q-.04-1.028-.138-1.937-.099-.908-.514-1.58-.395-.691-1.224-1.106-.81-.415-2.252-.474-1.107 0-1.857.375-.731.356-1.185.948-.435.573-.652 1.324-.218.75-.316 1.52-.08.751-.08 1.462.02.712.02 1.245v7.585q0 .553.02 1.225.04.652.158 1.323.138.652.395 1.265.277.612.711 1.086.455.454 1.126.75.692.277 1.66.277 1.205 0 2.014-.553.83-.553 1.324-1.501.494-.968.672-2.292.197-1.323.158-2.864h-3.912v-3.99h9.423v14.657h-4.247v-3.121h-.08q-.434 1.067-1.026 1.778-.593.691-1.304 1.126-.691.434-1.482.612-.77.198-1.54.257-2.331 0-3.97-.435-1.64-.414-2.746-1.205-1.087-.81-1.719-1.935-.632-1.126-.968-2.51-.316-1.402-.415-3.041-.079-1.66-.079-3.477z" />
            <path d="M263.989 62.09v-27.3h5.669v27.3z" />
            <path d="M286.835 34.79h5.67v27.3h-5.907l-4.405-9.72q-.573-1.205-1.086-2.449-.514-1.244-1.008-2.568-.474-1.323-.968-2.765-.494-1.442-.987-3.062h-.08q.159 1.699.317 3.694.158 1.995.296 4.089.118 2.074.197 4.03.08 1.955.08 3.614v5.136h-5.67v-27.3h5.867l4.405 9.937q.553 1.185 1.047 2.41.514 1.224 1.007 2.548.494 1.304.988 2.765.494 1.462 1.007 3.121h.08q-.159-1.856-.297-3.812-.138-1.956-.257-3.95-.138-1.976-.217-3.892-.079-1.936-.079-3.773z" />
            <path d="M316.419 54.168q.217 1.086.335 2.173.139 1.086.198 2.212h.119q0-.336.039-1.007.06-.672.138-1.383.08-.711.139-1.304.079-.612.138-.85l1.738-12.444h5.294l-4.622 20.524h-5.729l-1.738-8.296q-.277-1.304-.435-2.568-.138-1.284-.256-2.608h-.158q-.119 2.49-.534 4.88l-1.62 8.592H303.6l-4.682-20.524h5.531l1.857 12.504q.04.237.118.85.08.612.139 1.323.079.711.138 1.383.06.671.06 1.007h.078q.06-1.126.178-2.212.138-1.087.356-2.193l2.173-12.662h4.325z" />
            <path d="M326.524 62.09V41.564h5.255V62.09zm0-23.014V34.79h5.255v4.286z" />
            <path d="M343.208 62.168q-.77.08-1.64.138-.85.06-1.699.02-.83-.04-1.58-.217-.75-.178-1.323-.573-.573-.395-.91-1.027-.335-.632-.335-1.58V45.002h-2.133v-3.437h2.094v-5.669h5.293v5.67h2.233v3.436h-2.233v12.741q.06.336.317.494.256.158.592.217.356.06.711.04.376-.02.613-.04z" />
            <path d="M344.898 62.09v-27.3h5.255v8.889h.079q.553-.909 1.205-1.422.671-.534 1.303-.81.652-.277 1.225-.356.593-.079 1.007-.079 1.126 0 2.094.316.988.297 1.7.929.73.632 1.125 1.62.395.987.336 2.37v15.842h-5.255V48.025q0-.751-.079-1.363-.059-.613-.296-1.047-.217-.435-.671-.672-.435-.257-1.186-.296-.75-.02-1.264.257-.494.276-.81.79-.296.513-.434 1.224-.119.692-.08 1.521v13.65z" />
            <path d="M368.516 62.09v-27.3h15.941v3.99h-10.271v6.874h9.461v4.03h-9.461v8.415h10.271v3.99z" />
            <path d="M400.212 34.79h6.065l-6.559 27.3h-7.565l-6.716-27.3h6.064l3.556 17.501q.256 1.166.415 2.331.158 1.146.276 2.331.06.553.158 1.126.099.553.099 1.126h.079q0-.573.079-1.126.099-.573.158-1.126.118-1.185.276-2.33.158-1.166.415-2.332z" />
            <path d="M407.098 62.09v-27.3h15.941v3.99h-10.272v6.874h9.462v4.03h-9.462v8.415h10.272v3.99z" />
            <path d="M430.716 46.247q.06-1.738.178-3.299.138-1.58.474-2.923.356-1.363.988-2.45.652-1.086 1.718-1.857 1.087-.77 2.687-1.185 1.6-.415 3.871-.415 2.252 0 3.852.415t2.667 1.185q1.086.77 1.719 1.857.651 1.087.987 2.45.356 1.343.474 2.923.139 1.56.198 3.299v3.891q0 1.818-.099 3.477-.079 1.64-.415 3.042-.316 1.383-.948 2.509-.632 1.126-1.738 1.935-1.087.79-2.726 1.205-1.64.435-3.97.435-2.332 0-3.971-.435-1.64-.414-2.746-1.205-1.086-.81-1.738-1.935-.632-1.126-.968-2.51-.316-1.402-.415-3.041-.079-1.66-.079-3.477zm5.827 6.46q0 .552.02 1.224.04.652.158 1.323.139.652.395 1.265.277.612.731 1.086.454.454 1.126.75.691.277 1.66.277 1.007 0 1.698-.276.692-.297 1.146-.79.454-.494.711-1.126.257-.652.375-1.363.119-.712.139-1.442.02-.731.02-1.383v-6.973q0-.553-.02-1.284 0-.73-.119-1.501-.099-.79-.336-1.541-.237-.77-.691-1.363-.454-.612-1.166-.968-.71-.375-1.758-.375-1.126 0-1.856.375-.731.356-1.186.948-.454.573-.671 1.324-.218.75-.316 1.52-.08.751-.08 1.462.02.712.02 1.245z" />
            <path d="M458.896 43.679h.079q.435-.889 1.067-1.403.632-.533 1.284-.81.671-.296 1.303-.375.633-.079 1.087-.079 1.126 0 2.094.316.987.297 1.698.929.731.632 1.126 1.62.396.987.336 2.37v15.842h-5.254V48.4q0-.75-.08-1.363-.058-.612-.295-1.047-.218-.454-.672-.691-.435-.257-1.185-.297-.75-.02-1.264.277-.494.276-.81.79-.297.514-.435 1.225-.118.691-.079 1.501v13.294h-5.254V41.565h5.254z" />
            <path d="M472.518 62.09v-27.3h5.254v27.3z" />
            <path d="M481.695 62.09V41.564h5.254V62.09zm0-23.014V34.79h5.254v4.286z" />
            <path d="M495.91 43.679h.078q.435-.889 1.067-1.403.632-.533 1.284-.81.671-.296 1.303-.375.633-.079 1.087-.079 1.126 0 2.094.316.987.297 1.699.929.73.632 1.125 1.62.396.987.336 2.37v15.842h-5.254V48.4q0-.75-.08-1.363-.058-.612-.295-1.047-.218-.454-.672-.691-.435-.257-1.185-.297-.75-.02-1.264.277-.494.276-.81.79-.297.514-.435 1.225-.118.691-.079 1.501v13.294h-5.254V41.565h5.254z" />
            <path d="M508.681 48.617q-.098-1.817.356-3.22.474-1.422 1.442-2.39.988-.987 2.47-1.481 1.48-.514 3.416-.514 2.746 0 4.346.632 1.6.613 2.43 1.778.83 1.166 1.066 2.845.238 1.679.238 3.772v2.766h-10.51v2.983q.02 1.007.218 1.64.217.612.573.967.375.356.869.474.494.119 1.086.119 1.442 0 1.956-.948.533-.968.474-2.904h5.255q.079 1.718-.297 3.12-.375 1.384-1.264 2.371-.87.968-2.291 1.482-1.403.533-3.418.533-2.291 0-3.91-.494-1.6-.494-2.628-1.54-1.027-1.067-1.482-2.687-.454-1.64-.395-3.911zm10.51.553v-1.777q-.02-.79-.159-1.304-.138-.534-.454-.85-.297-.316-.83-.454-.513-.138-1.304-.138-.987 0-1.5.316-.514.316-.751.83-.218.513-.238 1.185-.02.652-.02 1.343v.85z" />
        </g>
    </symbol>
</svg>